<?xml version="1.0" encoding="UTF-8"?>
<svg width="35px" height="35px" viewBox="0 0 35 35" version="1.1" xmlns="http://www.w3.org/2000/svg" xmlns:xlink="http://www.w3.org/1999/xlink">
    <title>Group 2</title>
    <g id="4/23" stroke="none" stroke-width="1" fill="none" fill-rule="evenodd">
        <g id="Artboard" transform="translate(-156.000000, -69.000000)">
            <g id="Group-2" transform="translate(156.000000, 69.000000)">
                <rect id="Rectangle" x="0" y="0" width="35" height="35"></rect>
                <path d="M23.8066,14.5892 C28.5046,14.5892 32.2496,17.6212 32.2496,21.3702 C32.2496,23.8292 30.6686,25.9942 28.2786,27.1262 C28.6186,27.7752 29.2156,28.5522 29.5416,28.9742 C29.9276,29.4572 29.7306,30.0002 29.0496,30.0002 C28.1116,30.0002 26.1976,29.1182 24.6996,28.1222 C24.4606,28.1362 24.2226,28.1432 23.9876,28.1432 C19.3786,28.1432 15.6076,25.4522 15.3856,21.7152 C15.3786,21.6002 15.3646,21.4872 15.3646,21.3702 C15.3646,21.1412 15.3786,20.9152 15.4066,20.6922 C15.7886,17.5612 18.7996,15.0682 22.6756,14.6562 C23.0136,14.6192 23.3576,14.5962 23.7076,14.5932 C23.7416,14.5922 23.7736,14.5892 23.8066,14.5892 Z M23.8066,15.5892 C23.6926,15.5892 23.5806,15.5982 23.4676,15.6022 C23.0966,15.6152 22.7316,15.6442 22.3756,15.6982 C19.3376,16.1602 16.9626,18.0622 16.4676,20.4482 C16.4056,20.7492 16.3646,21.0552 16.3646,21.3702 C16.3646,21.4192 16.3716,21.4662 16.3726,21.5142 C16.4716,24.6812 19.7776,27.1432 23.9876,27.1432 C24.2036,27.1432 24.4206,27.1372 24.6406,27.1232 L24.6406,27.1232 L24.9746,27.1032 L25.2526,27.2892 C26.2836,27.9732 27.3696,28.5072 28.1526,28.7862 C27.8806,28.4082 27.5996,27.9862 27.3926,27.5912 L27.3926,27.5912 L26.9086,26.6682 L27.8506,26.2222 C29.9476,25.2292 31.2496,23.3702 31.2496,21.3702 C31.2496,18.1822 27.9116,15.5892 23.8066,15.5892 Z M13.2785,5 C19.1365,5 23.8065,8.784 23.8065,13.461 L23.8065,13.461 L23.7985,13.589 C23.4605,13.589 23.1265,13.606 22.7955,13.635 C22.7975,13.577 22.8065,13.52 22.8065,13.461 C22.8065,9.347 18.5325,6 13.2785,6 C8.0245,6 3.7505,9.347 3.7505,13.461 C3.7505,16.053 5.4285,18.459 8.1305,19.738 L8.1305,19.738 L9.0725,20.184 L8.5885,21.106 C8.2185,21.811 7.6525,22.594 7.2235,23.161 C8.1965,22.939 9.9245,22.173 11.6115,21.051 L11.6115,21.051 L11.8905,20.866 L12.2245,20.886 C12.5025,20.902 12.7795,20.911 13.0535,20.911 C13.5115,20.911 13.9585,20.879 14.3975,20.835 C14.3825,21.013 14.3645,21.189 14.3645,21.37 C14.3645,21.53 14.3825,21.685 14.3935,21.842 C13.9535,21.883 13.5075,21.911 13.0535,21.911 C12.7595,21.911 12.4635,21.902 12.1655,21.884 C10.2965,23.127 7.9105,24.228 6.7405,24.228 C5.8915,24.228 5.6465,23.55 6.1265,22.947 C6.5335,22.42 7.2785,21.451 7.7035,20.642 C4.7215,19.23 2.7505,16.529 2.7505,13.461 C2.7505,8.784 7.4195,5 13.2785,5 Z" id="bubble.left.and.bubble.right" fill="#4C4C4C"></path>
            </g>
        </g>
    </g>
</svg>