<?xml version="1.0" encoding="UTF-8"?>
<svg width="35px" height="35px" viewBox="0 0 35 35" version="1.1" xmlns="http://www.w3.org/2000/svg" xmlns:xlink="http://www.w3.org/1999/xlink">
    <title>Group 3</title>
    <defs>
        <rect id="path-1" x="0" y="0" width="35" height="35"></rect>
    </defs>
    <g id="4/23" stroke="none" stroke-width="1" fill="none" fill-rule="evenodd">
        <g id="Artboard" transform="translate(-56.000000, -69.000000)">
            <g id="Group-3" transform="translate(56.000000, 69.000000)">
                <mask id="mask-2" fill="white">
                    <use xlink:href="#path-1"></use>
                </mask>
                <g id="Rectangle"></g>
                <path d="M10.1592,5.6249 C9.3932,5.6249 8.5832,5.9999 7.7952,6.7379 C7.7072,6.8009 7.6322,6.8759 7.5572,6.9509 C6.2072,8.2019 5.6312,9.6519 5.6312,11.6279 C5.6312,15.1429 7.8952,19.3699 11.7712,23.2339 C15.6242,27.0739 19.8262,29.3749 23.3282,29.3749 C25.3292,29.3749 26.7932,28.8119 28.0552,27.4489 C28.1312,27.3619 28.2062,27.2869 28.2682,27.2109 C29.0182,26.3979 29.3692,25.5729 29.3692,24.8099 C29.3692,23.9979 28.9192,23.2469 27.9682,22.5969 L24.3412,20.0949 C23.8472,19.7509 23.3082,19.5469 22.7622,19.5469 C22.1752,19.5469 21.5782,19.7829 21.0142,20.3329 L20.1012,21.2329 C19.9352,21.3989 19.7622,21.4829 19.5752,21.4829 C19.4512,21.4829 19.3232,21.4459 19.1882,21.3709 C18.5752,20.9959 17.1872,19.8569 16.1242,18.7939 C14.9492,17.6309 14.1362,16.6929 13.6362,15.8179 C13.4482,15.4799 13.4982,15.1799 13.7722,14.9049 L14.6732,13.9919 C15.7362,12.9039 15.6242,11.6909 14.9112,10.6649 L12.4102,7.0389 C11.7602,6.0879 11.0092,5.6499 10.1962,5.6249 L10.1592,5.6249 Z M10.1592,5.6249 L10.1662,6.6249 C10.3552,6.6299 10.9312,6.6479 11.5872,7.6059 L14.0902,11.2359 C14.7892,12.2429 14.3492,12.8919 13.9612,13.2899 L13.0642,14.1989 C12.4722,14.7919 12.3592,15.5789 12.7672,16.3139 C13.2882,17.2259 14.0822,18.1799 15.4172,19.5019 C16.4602,20.5439 17.9182,21.7659 18.7022,22.2449 C18.9862,22.4029 19.2802,22.4829 19.5752,22.4829 C19.8892,22.4829 20.3592,22.3889 20.8042,21.9449 L21.7132,21.0479 C22.0582,20.7109 22.4012,20.5469 22.7622,20.5469 C23.1562,20.5469 23.5282,20.7479 23.7732,20.9179 L27.4032,23.4219 C28.3692,24.0829 28.3692,24.6299 28.3692,24.8099 C28.3692,25.3459 28.0802,25.9409 27.5332,26.5329 L27.5152,26.5529 L27.4982,26.5739 C27.4762,26.5999 27.4532,26.6249 27.4282,26.6519 C27.3852,26.6989 27.3392,26.7489 27.3222,26.7699 C26.2792,27.8949 25.0852,28.3749 23.3282,28.3749 C20.1612,28.3749 16.2072,26.2429 12.4772,22.5259 C8.7622,18.8219 6.6312,14.8499 6.6312,11.6279 C6.6312,9.9059 7.1112,8.7269 8.2642,7.6579 C8.3012,7.6219 8.3332,7.5829 8.3752,7.5529 L8.4302,7.5139 L8.4792,7.4679 C9.0672,6.9169 9.6482,6.6249 10.1592,6.6249 L10.1592,5.6249 L10.1592,5.6249 Z" id="phone" fill="#4C4C4C" mask="url(#mask-2)"></path>
            </g>
        </g>
    </g>
</svg>